# xmcd
#
# Track frame offsets: 
#        150
#        11510
#        20320
#        38472
#        49195
#        62370
#        73662
#        83835
#        93607
#        104967
#        115620
#        126652
#        139607
#        150527
#
# Disc length: 2138 seconds
#
# Revision: 4
# Processed by: cddbd v1.5.1PL0 Copyright (c) Steve Scherf et al.
# Submitted via: ExactAudioCopy v0.95a5
#
DISCID=b508580e
DTITLE=John Lee Hooker - Hobo Blues
DYEAR=1900
DGENRE=
TTITLE0=Boom, Boom
TTITLE1=Hobo Blues
TTITLE2=House Rent Blues
TTITLE3=Want Ad Blues
TTITLE4=I'm So Excited
TTITLE5=Hard Headed Woman
TTITLE6=I Wanna Walk
TTITLE7=Onions
TTITLE8=What Do You Say
TTITLE9=Keep Your Hands To Yourself
TTITLE10=Send Me Your Pillow
TTITLE11=She Shot Me Down
TTITLE12=I Want To Shout
TTITLE13=I'm Leaving (Baby)
EXTD=
EXTT0=
EXTT1=
EXTT2=
EXTT3=
EXTT4=
EXTT5=
EXTT6=
EXTT7=
EXTT8=
EXTT9=
EXTT10=
EXTT11=
EXTT12=
EXTT13=
PLAYORDER=
